<?xml version="1.0" encoding="utf-8"?>
<!-- Generator: Adobe Illustrator 24.3.0, SVG Export Plug-In . SVG Version: 6.00 Build 0)  -->
<svg version="1.0" id="Layer_1" xmlns="http://www.w3.org/2000/svg" xmlns:xlink="http://www.w3.org/1999/xlink" x="0px" y="0px"
	 viewBox="0 0 1000 1000" enable-background="new 0 0 1000 1000" xml:space="preserve">
<g>
	<g>
		<path fill="#FFFFFF" d="M895.2,16.9c-44.3,0-80.3,36-80.3,80.3c0,20.7,7.9,39.5,20.8,53.7c2.6,2.9,5.4,5.7,8.5,8.2
			c13.9,11.4,31.6,18.3,51,18.3c44.3,0,80.3-36,80.3-80.3S939.5,16.9,895.2,16.9z"/>
		<path fill="#FFFFFF" d="M587,822.8c-1.3-0.1-2.6-0.2-4-0.2c-2.6,0-5.1,0.1-7.7,0.4c-18.5,1.7-35.8,9.8-49.1,23.1
			c-31.3,31.3-31.3,82.2,0,113.5c31.3,31.3,82.2,31.3,113.5,0c15.2-15.2,23.5-35.3,23.5-56.8s-8.3-41.6-23.5-56.8
			C625.6,831.9,607,823.8,587,822.8z"/>
		<path fill="#FFFFFF" d="M161.5,389.4c-15.2-15.2-35.3-23.5-56.8-23.5s-41.6,8.3-56.8,23.5c-31.3,31.3-31.3,82.2,0,113.5
			c15.2,15.2,35.3,23.5,56.8,23.5s41.6-8.3,56.8-23.5c14.6-14.6,22.3-33.5,23.3-52.7c0.2-3.9,0.2-7.9-0.2-11.8
			C182.9,420.5,175.2,403.1,161.5,389.4z"/>
		<path fill="#FFFFFF" d="M749.1,241.6c-46.7-42.7-108.8-68.7-176.9-68.7c-144.7,0-262.5,117.8-262.5,262.5c0,0.1,0,0.1,0,0.2
			c0,4,0.1,7.9,0.3,11.8c6.3,139.2,121.5,250.5,262.2,250.5c0.1,0,0.2,0,0.2,0c3.9,0,7.8-0.1,11.6-0.3
			c139.2-6.2,250.6-121.4,250.6-262.2c0-72.4-29.5-138.1-77.1-185.6C754.9,247,752,244.3,749.1,241.6z"/>
	</g>
	<path d="M895.2,5.1c-50.8,0-92.1,41.3-92.1,92.1c0,24,9.3,45.9,24.4,62.3l-70.2,73.6c-48.8-44.7-113.8-72-185-72
		C421,161.1,298,284.1,298,435.4c0,0.1,0,0.3,0,0.4l-101.6,2.3c-1.8-20.8-10.6-41.2-26.6-57.1c-17.4-17.4-40.5-27-65.1-27
		s-47.7,9.6-65.1,27c-35.9,35.9-35.9,94.3,0,130.2c17.4,17.4,40.5,27,65.1,27s47.7-9.6,65.1-27c17-17,25.8-39,26.8-61.3l101.7-2.3
		c6.4,145.6,126.8,262.1,274,262.1c0.2,0,0.3,0,0.5,0l2.3,101.5c-21.6,1.8-41.7,11.1-57.2,26.6c-35.9,35.9-35.9,94.3,0,130.2
		c18,18,41.5,26.9,65.1,26.9c23.6,0,47.2-9,65.1-26.9c17.4-17.4,27-40.5,27-65.1c0-24.6-9.6-47.7-27-65.1
		c-16.5-16.5-38.2-26-61.4-26.9l-2.3-101.5c145.6-6.4,262.1-126.8,262.1-274c0-75.8-30.9-144.5-80.7-194.2l70.2-73.5
		c16,13.5,36.7,21.6,59.2,21.6c50.8,0,92.1-41.3,92.1-92.1S946,5.1,895.2,5.1z M104.7,526.4c-21.4,0-41.6-8.3-56.8-23.5
		c-31.3-31.3-31.3-82.2,0-113.5c15.2-15.2,35.3-23.5,56.8-23.5s41.6,8.3,56.8,23.5c13.7,13.7,21.4,31.1,23.1,49
		c0.4,3.9,0.4,7.9,0.2,11.8c-1,19.2-8.7,38.1-23.3,52.7C146.4,518.1,126.2,526.4,104.7,526.4z M639.8,846.1
		c15.2,15.2,23.5,35.3,23.5,56.8s-8.3,41.6-23.5,56.8c-31.3,31.3-82.2,31.3-113.5,0c-31.3-31.3-31.3-82.2,0-113.5
		c13.3-13.3,30.6-21.4,49.1-23.1c2.5-0.2,5.1-0.4,7.7-0.4c1.3,0,2.6,0.1,4,0.2C607,823.8,625.6,831.9,639.8,846.1z M310.1,447.3
		c-0.2-3.9-0.3-7.9-0.3-11.8c0-0.1,0-0.1,0-0.2c0-144.7,117.8-262.5,262.5-262.5c68.1,0,130.2,26.1,176.9,68.7
		c2.9,2.7,5.8,5.4,8.6,8.2c47.6,47.5,77.1,113.2,77.1,185.6c0,140.7-111.4,255.9-250.6,262.2c-3.9,0.2-7.7,0.3-11.6,0.3
		c-0.1,0-0.2,0-0.2,0C431.5,697.9,316.4,586.5,310.1,447.3z M895.2,177.4c-19.3,0-37.1-6.9-51-18.3c-3-2.5-5.8-5.3-8.5-8.2
		c-12.9-14.2-20.8-33.1-20.8-53.7c0-44.3,36-80.3,80.3-80.3c44.3,0,80.3,36,80.3,80.3S939.5,177.4,895.2,177.4z"/>
	<g>
		<g>
			<path d="M688.1,434.2v-0.6c0-0.3,0-0.3-0.3-0.6v-0.6c0-0.3-0.3-0.3-0.3-0.6c0,0,0-0.3-0.3-0.3L577.3,249.3
				c-0.3-0.3-0.6-0.9-0.9-1.2h-0.3c-0.3-0.3-0.6-0.6-0.9-0.6c0,0-0.3,0-0.3-0.3c-0.3-0.3-0.6-0.3-0.9-0.3h-0.3
				c-0.6-0.6-0.9-0.6-1.5-0.6s-0.9,0-1.5,0.3h-0.3c-0.3,0-0.6,0.3-0.9,0.3c0,0-0.3,0-0.3,0.3c-0.3,0.3-0.6,0.3-0.9,0.6h-0.3
				c-0.3,0.3-0.6,0.6-0.9,1.2L457.3,431.5c0,0,0,0.3-0.3,0.3c0,0.3-0.3,0.3-0.3,0.6v0.6c0,0.3,0,0.3-0.3,0.6v2.4
				c0,0.3,0,0.3,0.3,0.6v0.3c0.3,0.6,0.6,0.9,0.9,1.2l0.3,0.3l0.9,0.9c0,0,0.3,0,0.3,0.3l110.2,64.4h0.3c0.3,0.3,0.6,0.3,0.9,0.3
				h0.3c0.6,0,0.9,0.3,1.5,0.3s0.9,0,1.5-0.3h0.3c0.3,0,0.6-0.3,0.9-0.3h0.3l109.9-64.1c0.3,0,0.3-0.3,0.6-0.3l0.3-0.3l0.6-0.6
				l0.3-0.3c0-0.3,0.3-0.3,0.3-0.6s0.3-0.3,0.3-0.6c0-0.3,0-0.3,0.3-0.6c0-0.3,0-0.3,0.3-0.6v-0.6v-0.6L688.1,434.2L688.1,434.2z
				 M566.4,381l-88.9,40.5l88.9-148C566.4,273.5,566.4,381,566.4,381z M566.4,394v94.5l-91-53.2L566.4,394z M578.2,394l91,41.4
				l-91,53.2V394z M578.2,381V273.5l88.9,148L578.2,381z"/>
		</g>
		<g>
			<path d="M678.9,459l-106.6,64.1L465.6,459c-2.4-1.5-5.6-0.9-7.4,1.2c-1.8,2.1-2.1,5-0.6,7.4l109.9,154.2l0.3,0.3
				c0.3,0.3,0.3,0.6,0.6,0.6l0.3,0.3c0.3,0.3,0.6,0.3,0.6,0.6c0,0,0.3,0,0.3,0.3c0.3,0,0.6,0.3,0.9,0.3h0.3c0.3,0,0.9,0.3,1.2,0.3
				c0.6,0,0.9,0,1.2-0.3h0.3c0.3,0,0.6-0.3,0.9-0.3c0,0,0.3,0,0.3-0.3c0.3,0,0.6-0.3,0.6-0.6l0.3-0.3l0.6-0.6l0.3-0.3l109.9-154.2
				c1.5-2.4,1.5-5.3-0.6-7.4C683.6,458.1,681.6,457.8,678.9,459z M566.4,533.2v66.8l-82.7-116.1
				C483.6,483.8,566.4,533.2,566.4,533.2z M578.2,599.9v-66.8l82.7-49.6C660.9,483.5,578.2,599.9,578.2,599.9z"/>
		</g>
	</g>
</g>
</svg>
